<?xml version="1.0" encoding="utf-8"?>
<!-- Generator: Adobe Illustrator 21.1.0, SVG Export Plug-In . SVG Version: 6.00 Build 0)  -->
<svg version="1.1" id="Layer_1" xmlns="http://www.w3.org/2000/svg" xmlns:xlink="http://www.w3.org/1999/xlink" x="0px" y="0px"
	 viewBox="0 0 78 78" style="enable-background:new 0 0 78 78;" xml:space="preserve">
<style type="text/css">
	.st0{fill:#FCEBF4;stroke:#E94681;stroke-miterlimit:10;}
	.st1{fill:#E94681;}
</style>
<circle class="st0" cx="39" cy="39" r="38"/>
<g>
	<path class="st1" d="M28,26.4V52h21V26.4H28z M34.8,28.8c1,0,1.7,0.6,1.7,1.4c0,0.8-0.8,1.4-1.7,1.4s-1.7-0.6-1.7-1.4
		C33.1,29.5,33.8,28.8,34.8,28.8L34.8,28.8z M30,35.9c0.1-1.9,2.2-3.4,4.8-3.4c2.6,0,4.7,1.5,4.8,3.4c0,0.2-0.1,0.4-0.3,0.5
		c-1.3,0.5-2.8,0.8-4.4,0.8c-1.6,0-3.1-0.3-4.4-0.8C30.1,36.3,30,36.1,30,35.9L30,35.9z M45.9,49H31.1c-0.3,0-0.6-0.2-0.6-0.5
		c0-0.3,0.3-0.5,0.6-0.5h14.8c0.3,0,0.6,0.2,0.6,0.5C46.5,48.7,46.2,49,45.9,49L45.9,49z M45.9,45.2H31.1c-0.3,0-0.6-0.2-0.6-0.5
		c0-0.3,0.3-0.5,0.6-0.5h14.8c0.3,0,0.6,0.2,0.6,0.5C46.5,45,46.2,45.2,45.9,45.2L45.9,45.2z M45.9,41.5H31.1
		c-0.3,0-0.6-0.2-0.6-0.5c0-0.3,0.3-0.5,0.6-0.5h14.8c0.3,0,0.6,0.2,0.6,0.5C46.5,41.2,46.2,41.5,45.9,41.5L45.9,41.5z M45.9,41.5"
		/>
</g>
</svg>
