<?xml version="1.0" encoding="utf-8"?>
<!-- Generator: Adobe Illustrator 21.1.0, SVG Export Plug-In . SVG Version: 6.00 Build 0)  -->
<svg version="1.1" id="Layer_1" xmlns="http://www.w3.org/2000/svg" xmlns:xlink="http://www.w3.org/1999/xlink" x="0px" y="0px"
	 viewBox="0 0 78 78" style="enable-background:new 0 0 78 78;" xml:space="preserve">
<style type="text/css">
	.st0{fill:#F0EAF9;stroke:#6049E8;stroke-miterlimit:10;}
	.st1{clip-path:url(#SVGID_2_);fill:#6049E8;}
	.st2{fill:#6049E8;}
</style>
<circle class="st0" cx="39" cy="39" r="38"/>
<g>
	<g>
		<defs>
			<rect id="SVGID_1_" x="23.1" y="23.2" width="32.7" height="32.8"/>
		</defs>
		<clipPath id="SVGID_2_">
			<use xlink:href="#SVGID_1_"  style="overflow:visible;"/>
		</clipPath>
		<path class="st1" d="M54.6,46.5c-0.6,0-1.9,0.7-2.3,0.8c-1.3,0.6-3,1.6-4.2,2.4c-0.1,0.1-0.2,0.1-0.3,0.2
			c-0.5,0.3-1.1,0.6-1.7,0.7c-3.3,0.7-8.2,0.8-8.2,0.8l-0.3,0c-0.2,0-0.4-0.1-0.4-0.3c0-0.2,0.1-0.4,0.4-0.5l7.2-0.7
			c0.8-0.1,1.4-0.8,1.3-1.7c-0.1-0.8-0.9-1.5-1.7-1.4l-6.4-0.1c-0.4,0-1.1-0.1-1.6-0.2c-4.2-1.2-6.5-0.1-7.7,0.5
			c-0.3-0.5-0.8-0.8-1.4-0.7l-2.8,0.2c-0.9,0.1-1.6,0.8-1.6,1.7l0.4,6.2c0.1,0.9,0.9,1.6,1.8,1.5l2.8-0.2c0.6,0,1.1-0.4,1.3-0.9
			l12.2,0.5c1.4,0.1,2.6,0,3.8-0.6l0.4-0.2l9.2-5.4c0.5-0.3,0.8-0.7,0.8-1.2C55.8,47.3,55.5,46.6,54.6,46.5L54.6,46.5z M26.4,54.5
			c-0.5,0-0.9-0.4-0.9-0.9s0.4-0.9,0.9-0.9c0.5,0,0.9,0.4,0.9,0.9S26.9,54.5,26.4,54.5L26.4,54.5z M26.4,54.5"/>
	</g>
	<path class="st2" d="M48,48.5c0.9-0.7,2.9-1.7,4-2.3c0.3-0.2,0.7-0.3,1-0.5c-0.5-0.3-1-0.3-1.5-0.1c-1,0.4-2.9,1.3-3.9,1.9
		c0,0,0,0,0,0c0.1,0.2,0.1,0.4,0.1,0.6c0,0.2,0,0.3,0,0.5C47.8,48.6,47.9,48.5,48,48.5L48,48.5z M48,48.5"/>
	<path class="st2" d="M50.5,45c-0.5-0.3-1-0.3-1.5-0.1c-0.6,0.3-2.1,0.7-2.7,1.1c0.3,0.2,0.5,0.4,0.7,0.6c0,0,0.1-0.1,0.1-0.1
		l0.5-0.3C48.3,45.8,49.8,45.3,50.5,45L50.5,45z M50.5,45"/>
	<path class="st2" d="M49.6,33c1.8-0.8,3.1-2.6,3.1-4.7c0-2.8-2.3-5.1-5.1-5.1c-2.8,0-5.1,2.3-5.1,5.1c0,0,0,0.1,0,0.1
		C45.6,28.7,48.1,30.5,49.6,33L49.6,33z M49.6,33"/>
	<path class="st2" d="M41.6,30.3c-4.1,0-7.4,3.3-7.4,7.4c0,4.1,3.3,7.4,7.4,7.4c4.1,0,7.4-3.3,7.4-7.4
		C48.9,33.6,45.7,30.3,41.6,30.3z M44,34.9h-1.5c0.1,0.2,0.2,0.4,0.3,0.6H44v1h-1.2c-0.2,1-0.9,1.6-2.1,1.8c0.8,0.8,1.6,1.8,2.3,2.7
		l0.3,0.4h-1.6l-0.1-0.1c-0.8-1-1.6-1.9-2.6-3L39,38.2v-1h0.8c0.5,0,1.3-0.1,1.6-0.8H39v-1h2.3C41.1,35.2,40.7,35,40,35h-1v-1.2h5
		V34.9z"/>
</g>
</svg>
