<?xml version="1.0" encoding="utf-8"?>
<!-- Generator: Adobe Illustrator 21.1.0, SVG Export Plug-In . SVG Version: 6.00 Build 0)  -->
<svg version="1.1" id="Layer_1" xmlns="http://www.w3.org/2000/svg" xmlns:xlink="http://www.w3.org/1999/xlink" x="0px" y="0px"
	 viewBox="0 0 78 78" style="enable-background:new 0 0 78 78;" xml:space="preserve">
<style type="text/css">
	.st0{fill:#EAFDF4;stroke:#75E47E;stroke-miterlimit:10;}
	.st1{fill:#75E47E;}
</style>
<circle class="st0" cx="39" cy="39" r="38"/>
<g>
	<path class="st1" d="M47.8,30.4c0-0.6-0.2-1.2-0.7-1.6L45,26.7c-0.4-0.4-1-0.7-1.6-0.7h-0.1v4.6h4.6L47.8,30.4L47.8,30.4L47.8,30.4
		z"/>
	<path class="st1" d="M42.4,48.9h-4.6c-0.4,0-0.8-0.3-0.8-0.8s0.3-0.8,0.8-0.8h4.6c0.4,0,0.8,0.3,0.8,0.8S42.9,48.9,42.4,48.9
		L42.4,48.9z M31,43.5c0-0.4,0.3-0.8,0.8-0.8h7.6c0.4,0,0.8,0.3,0.8,0.8c0,0.4-0.3,0.8-0.8,0.8h-7.6C31.4,44.3,31,43.9,31,43.5
		L31,43.5z M31.8,39.7h7.6c0.4,0,0.8,0.3,0.8,0.8s-0.3,0.8-0.8,0.8h-7.6c-0.4,0-0.8-0.3-0.8-0.8S31.4,39.7,31.8,39.7L31.8,39.7z
		 M31.8,36.7h7.6c0.4,0,0.8,0.3,0.8,0.8s-0.3,0.8-0.8,0.8h-7.6c-0.4,0-0.8-0.3-0.8-0.8S31.4,36.7,31.8,36.7L31.8,36.7z M31.8,33.6
		h10.6c0.4,0,0.8,0.3,0.8,0.8s-0.3,0.8-0.8,0.8H31.8c-0.4,0-0.8-0.3-0.8-0.8S31.4,33.6,31.8,33.6L31.8,33.6z M45.8,45.6l-2.4,0.8
		l-0.4,0c-0.6,0-1.2-0.3-1.5-0.8c-0.4-0.5-0.5-1.1-0.3-1.7l0.7-2.2c0.1-0.4,0.4-0.9,0.7-1.2l5.2-5.1v-3.3h-5.4
		c-0.4,0-0.7-0.3-0.7-0.8V26H30.3C29,26,28,27,28,28.3v21.4c0,1.3,1,2.3,2.3,2.3h15.2c1.3,0,2.3-1,2.3-2.3V44L47,44.8
		C46.6,45.2,46.2,45.4,45.8,45.6L45.8,45.6z"/>
	<path class="st1" d="M43.1,44.9l2-0.7l-1.8-1.8l-0.7,2C42.5,44.7,42.8,45,43.1,44.9L43.1,44.9z"/>
	<path class="st1" d="M44.2,41.1l2.2,2.2c1.1-1.1,3.3-3.3,5-5l-2.2-2.2L44.2,41.1L44.2,41.1z"/>
	<path class="st1" d="M53.6,33.9c-0.3-0.3-0.7-0.4-1.1-0.4s-0.8,0.2-1.1,0.4L50.3,35l2.2,2.2c0.6-0.6,1-1,1.1-1.1
		C54.1,35.5,54.1,34.5,53.6,33.9L53.6,33.9z"/>
</g>
</svg>
