<?xml version="1.0" encoding="iso-8859-1"?>
<!-- Generator: Adobe Illustrator 19.0.0, SVG Export Plug-In . SVG Version: 6.00 Build 0)  -->
<svg version="1.1" id="Capa_1" xmlns="http://www.w3.org/2000/svg" xmlns:xlink="http://www.w3.org/1999/xlink" x="0px" y="0px"
	 viewBox="0 0 461.322 461.322" style="enable-background:new 0 0 461.322 461.322;" xml:space="preserve">
<circle style="fill:#4DCFE0;" cx="270.629" cy="172.408" r="39.184"/>
<g>
	<polygon style="fill:#00BBD3;" points="445.649,219.429 445.649,400.196 345.861,400.196 263.837,326.531 	"/>
	<polygon style="fill:#00BBD3;" points="345.861,400.196 15.673,400.196 15.673,307.2 144.196,218.906 263.837,326.531 
		263.837,326.531 	"/>
</g>
<path style="fill:#D4E1F4;" d="M445.649,61.127v158.302L263.837,326.531l0,0L144.196,218.906L15.673,307.2V61.127H445.649z
	 M309.812,172.408c0-21.42-17.763-39.184-39.184-39.184c-21.42,0-39.184,17.763-39.184,39.184s17.763,39.184,39.184,39.184
	C292.049,211.592,309.812,193.829,309.812,172.408z"/>
<g>
	<path style="fill:#3A2C51;" d="M270.629,227.265c-30.302,0-54.857-24.555-54.857-54.857s24.555-54.857,54.857-54.857
		s54.857,24.555,54.857,54.857S300.931,227.265,270.629,227.265z M270.629,148.898c-13.061,0-23.51,10.449-23.51,23.51
		c0,13.061,10.449,23.51,23.51,23.51c13.061,0,23.51-10.449,23.51-23.51C294.139,159.347,283.69,148.898,270.629,148.898z"/>
	<path style="fill:#3A2C51;" d="M445.649,45.453H15.673C6.792,45.453,0,52.245,0,61.127v339.069c0,8.882,6.792,15.673,15.673,15.673
		h429.976c8.882,0,15.673-6.792,15.673-15.673V61.127C461.322,52.245,454.531,45.453,445.649,45.453z M305.11,384.522H31.347
		v-68.963l111.804-76.8 M429.975,384.522h-77.845l-61.649-55.38l139.494-82.547V384.522z M429.975,210.547L265.927,307.2
		l-111.282-99.788c-5.224-4.702-13.584-5.224-19.331-1.045L31.347,277.42V76.8h398.629L429.975,210.547L429.975,210.547z"/>
</g>
<g>
</g>
<g>
</g>
<g>
</g>
<g>
</g>
<g>
</g>
<g>
</g>
<g>
</g>
<g>
</g>
<g>
</g>
<g>
</g>
<g>
</g>
<g>
</g>
<g>
</g>
<g>
</g>
<g>
</g>
</svg>
