<?xml version="1.0" encoding="utf-8"?>
<!-- Generator: Adobe Illustrator 21.1.0, SVG Export Plug-In . SVG Version: 6.00 Build 0)  -->
<svg version="1.1" id="Layer_1" xmlns="http://www.w3.org/2000/svg" xmlns:xlink="http://www.w3.org/1999/xlink" x="0px" y="0px"
	 viewBox="0 0 512 283" style="enable-background:new 0 0 512 283;" xml:space="preserve">
<style type="text/css">
	.st0{fill:#030303;}
	.st1{fill:#9F9B9B;}
	.st2{fill:#050505;}
	.st3{fill:#797272;}
	.st4{fill:#FF0404;}
	.st5{fill:#0E0E0E;}
	.st6{fill:#0B0B0B;}
	.st7{fill:#890303;}
	.st8{fill:#FFFFFF;}
	.st9{fill:#FF0505;}
	.st10{fill:#FF1E1E;}
	.st11{fill:#FF7777;}
	.st12{fill:#FF4848;}
	.st13{fill:#FFC5C5;}
	.st14{fill:#FF9A9A;}
</style>
<path class="st0" d="M445.3,15.9c-0.1,0.4-0.5,0.6-0.8,1c-2.6,3.2-1.4,7.8,2.3,9.4c0.6,0.3,1.2,0.4,1.8,0.5c0.7,0,0.9,0.3,0.9,0.9
	c0,2.7,0,5.5,0,8.2c0,0.8-0.4,0.9-1.1,1c-2.2,0.2-3.8,1.4-4.8,3.4c-1.7,3.6,0.3,7.5,4.3,8.4c1.6,0.4,1.6,0.4,1.6,2.1
	c0,2.3,0,4.5,0,6.8c0,1.2,0,1.2-1.2,1.4c-3.1,0.5-5.3,2.9-5.3,5.9c0,3,2.1,5.4,5.1,5.9c1.3,0.2,1.4,0.2,1.4,1.6c0,2.4,0,4.9,0,7.3
	c0,1,0.1,1.3-1.3,1.5c-2.9,0.4-4.9,2.6-5.2,5.4c-0.3,2.7,1.4,5.2,4,6.2c0.5,0.2,1,0.3,1.5,0.3c0.6,0,1,0.3,0.9,1c0,2.7,0,5.5,0,8.2
	c0,0.8-0.5,0.9-1.1,1c-2.1,0.3-3.8,1.4-4.7,3.3c-1.9,3.7,0.4,8,4.5,8.6c1.3,0.2,1.3,0.2,1.3,1.4c0,2.5,0,5.1,0,7.6
	c0,0.7-0.1,1.1-1,1.2c-2.2,0.2-3.9,1.4-4.8,3.4c-1.8,3.6,0.5,7.8,4.5,8.5c1.3,0.2,1.4,0.2,1.4,1.5c0,1.8,0,3.7,0,5.5
	c0,1.2,0,1.3-1.3,1.4c-2.3,0.4-3.9,1.6-4.7,3.7c-1.4,3.6,0.8,7.5,4.6,8.1c1.4,0.2,1.4,0.2,1.4,1.7c0,2.4,0,4.9,0,7.3
	c0,0.8-0.2,1.2-1.1,1.3c-2.1,0.3-3.8,1.3-4.7,3.3c-1.8,3.6,0.4,7.9,4.4,8.6c1.4,0.3,1.5,0.3,1.5,1.8c0,2.4,0,4.9,0,7.3
	c0,0.8-0.2,1.1-1,1.2c-2.2,0.2-3.9,1.4-4.8,3.4c-1.8,3.7,0.5,7.9,4.7,8.6c1.2,0.2,1.2,0.2,1.2,1.3c0,2.5,0,5.1,0,7.6
	c0,0.8-0.2,1.2-1.1,1.3c-3.2,0.4-5.3,2.9-5.4,5.9c0,3.1,2.1,5.6,5.4,6c0.9,0.1,1.1,0.4,1.1,1.3c0,2.5,0,5.1,0,7.6
	c0,1.1,0,1.1-1.2,1.3c-2.8,0.4-4.8,2.5-5.2,5.2c-0.4,2.4,1,5,3.3,6.2c0.7,0.4,1.5,0.5,2.3,0.6c0.6,0.1,0.9,0.3,0.9,0.9
	c0,2.8,0,5.6,0,8.4c0,0.9-0.6,0.8-1.2,0.9c-2.7,0.4-4.5,2-5.1,4.7c-0.5,2,0.1,3.7,1.4,5.3c0.7,0.9,0.8,0.9,0,1.7
	c-0.9,0.9-1.9,1.8-2.8,2.8c-0.6,0.6-1,0.6-1.6,0c-1.9-1.9-5-2.1-7.2-0.8c-1.7,1.1-2.7,2.7-2.9,4.6c-0.1,0.7-0.2,1-1,1
	c-2.1,0-4.2,0-6.3,0c-0.6,0-1-0.2-1-0.9c0-0.3-0.1-0.5-0.1-0.8c-0.6-2.9-3.1-4.9-6-4.8c-2.9,0.1-5.3,2.2-5.8,5.1
	c-0.2,1.4-0.2,1.4-1.6,1.4c-1.7,0-3.4,0-5.1,0c-1.5,0-1.5,0-1.8-1.4c-0.7-3.5-3.7-5.5-7.1-4.9c-2.4,0.4-4.4,2.4-4.8,4.9
	c-0.2,1.5-0.2,1.5-1.7,1.5c-1.8,0-3.6,0-5.4,0c-1.2,0-1.2,0-1.4-1.2c-0.6-3.6-3.5-5.8-7-5.2c-2.3,0.4-4.2,2.2-4.7,4.5
	c-0.1,0.3-0.1,0.5-0.1,0.8c0,0.7-0.3,1.1-1.2,1.1c-2.1-0.1-4.1,0-6.2,0c-0.7,0-1.1-0.2-1.1-1c0-0.7-0.2-1.4-0.6-2.1
	c-1.1-2.3-3.4-3.6-5.9-3.4c-2.6,0.2-4.6,2-5.3,4.5c-0.2,0.6,0.1,1.4-0.5,1.8c-0.6,0.4-1.3,0.1-2,0.2c-1.5,0-3,0-4.4,0
	c-1.4,0-1.4,0-1.7-1.4c-0.5-2.6-2.3-4.5-4.7-5c-3.5-0.7-6.7,1.6-7.2,5.1c-0.2,1.2-0.2,1.2-1.5,1.2c-1.7,0-3.5,0-5.2,0
	c-1.5,0-1.5,0-1.8-1.5c-0.7-3.5-3.7-5.5-7.1-4.9c-2.4,0.4-4.3,2.4-4.7,4.9c-0.2,1.4-0.2,1.4-1.8,1.5c-1.7,0-3.4,0-5.1,0
	c-1.5,0-1.4,0-1.7-1.4c-0.4-2.4-1.8-4.1-4.1-4.8c-2.3-0.7-4.4-0.2-6.1,1.5c-1,1-1.5,2.1-1.7,3.5c-0.2,1.2-0.2,1.2-1.4,1.2
	c-1.8,0-3.7,0-5.5,0c-1.3,0-1.3,0-1.6-1.3c-0.7-4.2-5.2-6.5-8.9-4.4c-1.7,1-2.7,2.5-3,4.4c-0.2,1.3-0.2,1.3-1.6,1.3
	c-1.8,0-3.6,0-5.4,0c-1.2,0-1.2,0-1.5-1.2c-0.8-4.4-5.3-6.6-9-4.4c-1.7,1-2.8,2.6-2.9,4.6c-0.1,0.9-0.4,1.1-1.2,1.1c-2,0-4,0-6,0
	c-0.8,0-1.2-0.1-1.2-1c0-0.6-0.2-1.1-0.4-1.7c-1-2.6-3.6-4.1-6.3-3.7c-2.7,0.3-4.8,2.3-5.2,5c-0.2,1.4-0.2,1.4-1.6,1.4
	c-1.7,0-3.5,0-5.2,0c-1.4,0-1.4,0-1.7-1.4c-0.4-2.6-2.4-4.6-5-5c-2.6-0.4-5.1,0.9-6.3,3.3c-0.4,0.7-0.5,1.5-0.6,2.3
	c-0.1,0.7-0.4,0.9-1,0.9c-2,0-3.9,0-5.9,0c-1.3,0-1.3,0-1.5-1.3c-0.4-2.4-1.8-4.1-4-4.8c-2.2-0.7-4.3-0.3-6,1.3
	c-1.1,1-1.8,2.4-1.9,3.9c-0.1,0.8-0.4,1-1.1,1c-2,0-4,0-6,0c-0.8,0-1.2-0.2-1.3-1.1c-0.5-3.1-2.4-5-5.2-5.3
	c-3.3-0.4-6.2,1.8-6.7,5.1c-0.2,1.3-0.2,1.3-1.5,1.3c-2,0-3.9,0-5.9,0c-0.6,0-1-0.2-1-0.9c0-0.5-0.2-1-0.3-1.5
	c-0.9-2.6-3.4-4.3-6.1-4.1c-2.8,0.2-5,2.3-5.5,5.1c-0.2,1.4-0.2,1.4-1.7,1.4c-1.8,0-3.7,0-5.5,0c-0.8,0-1.2-0.2-1.3-1.1
	c-0.4-3.2-2.8-5.3-5.8-5.4c-3-0.1-5.4,2-6,5.2c-0.3,1.3-0.3,1.3-1.6,1.3c-1.8,0-3.7,0-5.5,0c-1.2,0-1.2,0-1.3-1.2
	c-0.4-2.7-2.2-4.7-4.7-5.2c-2.6-0.5-5.1,0.5-6.4,2.7c-0.5,0.8-0.8,1.6-0.9,2.5c0,1-0.5,1.1-1.3,1.1c-2,0-3.9,0-5.9,0
	c-0.8,0-1.1-0.2-1.3-1.1c-0.5-3.7-3.4-5.8-6.9-5.3c-2.6,0.4-4.6,2.4-5,5.1c-0.2,1.3-0.2,1.3-1.5,1.3c-1.9,0-3.8,0-5.7,0
	c-0.8,0-1.1-0.3-1.2-1.1c0-0.7-0.2-1.3-0.5-2c-1.1-2.4-3.6-3.7-6.2-3.4c-2.6,0.3-4.7,2.3-5.1,4.9c0,0.3-0.1,0.5-0.1,0.8
	c0,0.5-0.3,0.7-0.8,0.7c-2.2,0-4.4,0-6.6,0c-0.6,0-0.9-0.2-0.9-0.8c0-0.6-0.1-1.1-0.3-1.7c-0.9-2.5-3.3-4.1-5.9-4
	c-2.7,0.1-4.9,2-5.6,4.6c-0.5,1.9-0.5,1.9-2.5,1.9c-1.6,0-3.2,0-4.7,0c-0.8,0-1.2-0.1-1.3-1.1c-0.2-2.4-1.5-4.1-3.8-5
	c-2.3-0.9-4.3-0.4-6.2,1.1c-0.9,0.7-0.9,0.7-1.8-0.1c-0.9-0.9-1.7-1.7-2.6-2.6c-0.9-0.9-0.9-0.9-0.1-1.9c2.8-3.3,1.6-8.1-2.5-9.6
	c-0.5-0.2-1-0.3-1.5-0.3c-0.6-0.1-1-0.3-1-1c0-2.7,0-5.5,0-8.2c0-0.8,0.5-0.9,1.1-1c2.4-0.3,4.1-1.6,5-3.9c1.4-3.6-0.9-7.5-4.8-8.1
	c-1.3-0.2-1.3-0.2-1.3-1.4c0-2.5,0-5,0-7.4c0-1.1,0-1.1,1.2-1.3c2.8-0.5,4.8-2.4,5.2-5c0.4-2.5-0.8-5-3.1-6.3
	c-0.7-0.4-1.5-0.7-2.3-0.7c-0.9,0-1.1-0.4-1.1-1.2c0-2.5,0-5.1,0-7.6c0-1.2,0-1.2,1.3-1.4c2.6-0.5,4.3-1.9,5-4.5
	c0.7-2.4-0.3-4.8-2.2-6.3c-0.9-0.7-1.9-1.1-3.1-1.2c-0.8,0-1-0.4-1-1.1c0-2.5,0-5.1,0-7.6c0-1.3,0-1.3,1.4-1.5
	c2.9-0.5,5-2.8,5.1-5.6c0.1-2.9-1.7-5.3-4.5-6.1c-0.3-0.1-0.6-0.2-0.9-0.2c-0.9,0.1-1-0.4-1-1.2c0-2.5,0-5.1,0-7.6
	c0-1.2,0-1.2,1.3-1.4c4.4-0.7,6.6-5.7,4.1-9.3c-1-1.4-2.3-2.3-4-2.5c-1.4-0.2-1.4-0.2-1.4-1.6c0-1.9,0-3.8,0-5.7
	c0-0.9,0.3-1.1,1.1-1.3c4.6-0.7,6.8-5.6,4.3-9.3c-1-1.5-2.5-2.4-4.3-2.6c-1-0.1-1.1-0.5-1.1-1.3c0-2.5,0-5.1,0-7.6
	c0-1.1,0-1.1,1.2-1.3c2.9-0.4,5.1-2.8,5.2-5.7c0.1-3-1.8-5.5-4.8-6.1c-1.6-0.3-1.6-0.3-1.6-2c0-2.3,0-4.5,0-6.8
	c0-1.5,0.1-1.4,1.4-1.6c4.2-0.5,6.7-5.4,4-9.3c-1-1.5-2.4-2.3-4.2-2.5c-1.2-0.2-1.2-0.2-1.2-1.4c0-2.4,0-4.7,0-7.1
	c0-1.6-0.1-1.5,1.5-1.8c2.9-0.5,5-2.9,5-5.9c0-3-2.1-5.5-5.1-5.9c-1.3-0.2-1.4-0.2-1.4-1.5c0-2.4,0-4.7,0-7.1c0-1.3,0-1.3,1.3-1.6
	c3.9-0.8,6.1-4.3,4.8-7.9c-0.8-2.3-2.5-3.6-4.9-4c-1.2-0.2-1.2-0.2-1.3-1.5c0-2.4,0-4.9,0-7.3c0-1.2,0-1.2,1.2-1.5
	c2.3-0.4,4-1.6,4.8-3.8c0.8-2.3,0.4-4.4-1.2-6.2c-0.7-0.8-0.7-0.9,0-1.6c0.8-0.9,1.7-1.7,2.6-2.6c1-1,1-1,2.1-0.1
	c3.1,2.5,7.7,1.5,9.3-2.1c0.3-0.6,0.5-1.3,0.5-2c0-0.8,0.4-1,1.1-1c2.1,0,4.2,0,6.3,0c0.7,0,0.9,0.3,1,0.9c0.1,0.8,0.3,1.7,0.7,2.4
	c1.2,2.2,3.8,3.5,6.3,3.1c2.6-0.4,4.6-2.5,5-5.1c0.2-1.3,0.2-1.4,1.5-1.4c1.8,0,3.7,0,5.5,0c1.2,0,1.2,0,1.4,1.2
	c0.5,3.2,2.9,5.3,5.9,5.3c3.1,0,5.4-2,6-5.2c0.2-1.2,0.2-1.2,1.5-1.3c1.8,0,3.7,0,5.5,0c1.2,0,1.2,0,1.4,1.3
	c0.6,4.4,5.5,6.6,9.2,4.3c1.6-1,2.4-2.4,2.7-4.2c0.2-1.3,0.2-1.3,1.6-1.3c1.8,0,3.6,0,5.4,0c1.2,0,1.2,0,1.4,1.2
	c0.5,2.7,2.5,4.8,5.1,5.2c2.5,0.4,5-0.9,6.2-3.1c0.4-0.7,0.7-1.5,0.7-2.3c0-0.9,0.4-1.1,1.2-1.1c2.1,0,4.1,0,6.2,0
	c0.6,0,1,0.2,1,0.9c0.1,0.9,0.3,1.9,0.8,2.7c1.3,2.2,3.8,3.3,6.2,2.8c2.5-0.5,4.5-2.5,4.8-5c0.2-1.4,0.2-1.4,1.5-1.4
	c1.9,0,3.8,0,5.7,0c0.8,0,1.2,0.3,1.3,1.2c0.4,3.2,2.8,5.3,5.9,5.3c3.1,0,5.4-2,6-5.2c0.2-1.3,0.2-1.3,1.5-1.3c1.9,0,3.8,0,5.7,0
	c0.8,0,1.2,0.1,1.3,1.1c0.3,3.1,2.8,5.3,5.8,5.4c3.1,0,5.5-2,6.1-5.1c0.2-1.3,0.2-1.3,1.5-1.3c1.8,0,3.7,0,5.5,0
	c1.1,0,1.1,0,1.3,1.2c0.8,4.5,5.4,6.7,9.1,4.4c1.7-1,2.7-2.6,2.8-4.5c0.1-0.8,0.4-1.1,1.2-1.1c2,0,4,0,6,0c0.9,0,1.2,0.3,1.3,1.2
	c0.1,1.4,0.7,2.7,1.8,3.6c1.7,1.6,3.7,2.1,6,1.4c2.3-0.7,3.7-2.4,4.1-4.8c0.3-1.4,0.2-1.4,1.7-1.4c1.8,0,3.7,0,5.5,0
	c0.8,0,1.2,0.2,1.3,1.1c0.3,3.4,3.4,5.4,5.8,5.4c3.1,0,5.4-2,6-5.2c0.2-1.3,0.2-1.3,1.4-1.3c1.9,0,3.8,0,5.7,0
	c0.8,0,1.2,0.1,1.3,1.1c0.4,3.2,2.8,5.4,5.8,5.4c3.1,0.1,5.5-2,6.1-5.1c0.2-1.3,0.2-1.3,1.5-1.4c1.8,0,3.7,0,5.5,0
	c1.1,0,1.1,0,1.3,1.2c0.8,4.3,5,6.5,8.7,4.6c1.9-1,2.9-2.5,3.2-4.6c0.2-1.2,0.2-1.2,1.5-1.3c1.8,0,3.7,0,5.5,0c1.2,0,1.3,0,1.5,1.3
	c0.4,2.4,1.7,4,3.8,4.8c3.5,1.4,7.4-0.9,8-4.7c0.2-1.4,0.2-1.4,1.6-1.5c1.7,0,3.5,0,5.2,0c1.4,0,1.4,0,1.7,1.4
	c0.4,2.7,2.7,4.8,5.3,5.1c2.8,0.2,5.4-1.4,6.3-4.1c0.2-0.5,0.3-1,0.3-1.5c0-0.7,0.4-0.9,1-0.9c2.1,0,4.1,0,6.2,0
	c0.8,0,1.1,0.2,1.2,1.1c0.4,3.2,2.8,5.4,5.8,5.4c3.1,0.1,5.6-2,6.1-5.2c0.2-1.2,0.2-1.2,1.5-1.2c1.8,0,3.6,0,5.4,0
	c1.3,0,1.3,0,1.5,1.3c0.6,2.9,2.7,5,5.4,5.2c3.3,0.3,6-1.9,6.5-5.2c0.2-1.3,0.2-1.3,1.4-1.3c1.8,0,3.6,0,5.4,0
	c1.3,0,1.5-0.1,1.7,1.4c0.5,3,2.9,5.1,5.9,5.1c2.9,0,5.4-2.1,5.9-5c0.2-1.5,0.2-1.5,1.8-1.5c1.7,0,3.4,0,5.1,0c1.5,0,1.5,0,1.7,1.4
	c0.4,2.7,2.6,4.8,5.3,5.1c2.8,0.3,5.4-1.4,6.3-4c0.2-0.5,0.3-1.1,0.3-1.7c0.1-0.5,0.3-0.7,0.8-0.7c2.2,0,4.4,0,6.6,0
	c0.8,0,0.8,0.6,0.9,1.2c0.5,3.2,3.1,5.4,6.2,5.3c2.9-0.1,5.2-2.2,5.7-5.2c0.2-1.2,0.2-1.3,1.4-1.3c1.7,0,3.5,0,5.2,0
	c1.5,0,1.5,0,1.8,1.4c0.7,3.2,3.3,5.3,6.5,5c1.4-0.1,2.7-0.7,3.6-1.7c0.5-0.6,0.9-0.5,1.4,0c1,1,2,2,3,3
	C445.1,15.3,445.3,15.5,445.3,15.9z"/>
<path class="st1" d="M441.2,270.2c-1.6-1.3-3.1-2-4.9-2c-3.3,0-6,2.1-6.7,5.3c-0.2,0.8-0.5,1.1-1.3,1.1c-1.4-0.1-2.7,0-4.1,0
	c-1.2,0-1.2,0-1.5-1.2c-1.2-5-7.1-6.9-11.1-3.7c-1.2,1-2,2.3-2.3,3.9c-0.1,0.7-0.4,1.1-1.3,1c-1.4-0.1-2.9-0.1-4.3,0
	c-0.9,0-1.2-0.2-1.4-1.2c-1.1-4.6-6.3-6.8-10.4-4.2c-1.6,1-2.6,2.4-3,4.3c-0.2,0.8-0.5,1.1-1.3,1.1c-1.5-0.1-3,0-4.4,0
	c-0.7,0-1-0.1-1.1-0.9c-0.2-1.2-0.7-2.3-1.6-3.2c-1.8-2-4.1-2.7-6.8-2.1c-2.6,0.6-4.3,2.3-5.1,4.9c-0.4,1.3-0.4,1.3-1.7,1.3
	c-1.4,0-2.8,0-4.3,0c-0.5,0-0.7-0.1-0.9-0.7c-0.2-0.8-0.4-1.5-0.8-2.2c-1.4-2.5-4-3.8-6.9-3.5c-2.7,0.3-5,2.3-5.8,5
	c-0.4,1.4-0.4,1.4-1.9,1.4c-1.2,0-2.4,0-3.6,0c-1.2,0-1.2,0-1.5-1.2c-0.7-2.6-2.4-4.4-5-5c-2.7-0.7-5,0.1-6.9,2.1
	c-0.8,0.9-1.4,2-1.5,3.2c-0.1,0.6-0.4,0.9-1.1,0.9c-1.5,0-3-0.1-4.4,0c-0.9,0-1.2-0.2-1.4-1.2c-0.6-2.8-2.5-4.6-5.2-5.1
	c-2.7-0.6-5.1,0.3-6.9,2.5c-0.7,0.9-1.1,1.9-1.3,3c-0.1,0.6-0.3,0.8-0.9,0.8c-1.6,0-3.3,0-4.9,0c-0.5,0-0.9-0.1-0.9-0.8
	c0-0.3-0.1-0.5-0.2-0.8c-0.9-3-3.5-4.9-6.6-4.9c-3.1,0-5.8,2.1-6.6,5.1c-0.4,1.3-0.4,1.3-1.7,1.3c-1.4,0-2.8,0-4.3,0
	c-0.5,0-0.8-0.1-0.9-0.7c0-0.3-0.1-0.6-0.2-0.9c-0.9-3-3.6-4.9-6.7-4.9c-3.1,0-5.7,2-6.6,5c-0.4,1.4-0.4,1.4-1.9,1.4
	c-1.2,0-2.4,0-3.6,0c-1.2,0-1.2,0-1.5-1.2c-1.2-4.9-7.2-6.9-11.1-3.6c-1.2,1-2,2.3-2.3,3.9c-0.1,0.8-0.4,1.1-1.3,1
	c-1.5-0.1-3,0-4.4,0c-0.7,0-1.1-0.1-1.2-1c-0.7-3.2-3.3-5.4-6.5-5.5c-3.3-0.1-6,1.9-6.9,5.2c-0.3,1.2-0.3,1.2-1.7,1.2
	c-1.4,0-2.7,0-4.1,0c-0.7,0-1-0.2-1.1-0.9c-0.2-1.2-0.7-2.3-1.6-3.2c-1.8-2-4.1-2.7-6.8-2.1c-2.6,0.6-4.3,2.3-5.1,4.9
	c-0.4,1.3-0.4,1.3-1.7,1.3c-1.3,0-2.5-0.1-3.8,0c-0.9,0.1-1.3-0.3-1.5-1.1c-0.5-2.4-2-4-4.3-4.9c-3.9-1.4-8,0.8-9.1,4.8
	c-0.3,1.2-0.3,1.2-1.7,1.3c-1.3,0-2.5,0-3.8,0c-1.2,0-1.2,0-1.5-1.2c-0.7-2.7-2.4-4.4-5.1-5c-2.7-0.6-5,0.2-6.8,2.3
	c-0.8,0.9-1.3,1.9-1.5,3.1c-0.1,0.6-0.4,0.9-1.1,0.9c-1.5,0-3.1,0-4.6,0c-0.7,0-1.1-0.2-1.2-1c-0.6-2.8-2.4-4.6-5.1-5.3
	c-2.7-0.6-5,0.1-6.9,2.2c-0.8,0.9-1.3,2-1.5,3.3c-0.1,0.6-0.4,0.8-0.9,0.8c-1.6,0-3.2,0-4.7,0c-0.7,0-1-0.2-1.1-0.9
	c-0.4-1.9-1.4-3.4-3-4.4c-4-2.5-9.3-0.4-10.4,4.2c-0.2,0.9-0.5,1.2-1.4,1.2c-1.5-0.1-3-0.1-4.4,0c-0.7,0-1-0.2-1.1-0.9
	c-0.2-1.1-0.6-2.1-1.3-3c-1.8-2.2-4.2-3-6.9-2.4c-2.6,0.6-4.3,2.3-5.1,4.9c-0.4,1.4-0.4,1.4-1.7,1.4c-1.3,0-2.6,0-4,0
	c-0.8,0-1.2-0.2-1.3-1.1c-0.8-3.6-3.9-5.7-7.5-5.3c-2.7,0.3-5,2.2-5.8,4.8c-0.1,0.3-0.2,0.6-0.2,0.9c-0.1,0.5-0.3,0.7-0.8,0.7
	c-1.7,0-3.4,0-5.1,0c-0.8,0-0.8-0.4-0.9-1c-0.7-2.8-2.4-4.6-5.1-5.3c-2.7-0.6-5.1,0.2-7,2.3c-0.8,0.9-1.2,2-1.4,3.1
	c-0.1,0.6-0.4,0.8-0.9,0.8c-1.6,0-3.2,0-4.7,0c-0.7,0-1-0.2-1.1-0.9c-0.2-1.3-0.8-2.4-1.7-3.3c-1.9-2-4.2-2.6-6.8-2
	c-2.6,0.7-4.3,2.4-4.9,5c-0.2,0.9-0.5,1.2-1.4,1.2c-1.4-0.1-2.9-0.1-4.3,0c-0.8,0-1.2-0.2-1.3-1c-0.2-1.2-0.7-2.2-1.5-3.1
	c-2.3-2.7-6.2-3.1-9.2-1.1c-0.3,0.2-0.6,0.4-1,0.7c-0.8-0.8-1.5-1.5-2.2-2.2c-0.8-0.8-0.8-0.8-0.2-1.8c1.1-1.7,1.6-3.4,1.1-5.4
	c-0.7-2.8-2.4-4.7-5.2-5.3c-0.9-0.2-1.2-0.6-1.1-1.5c0.1-2,0-3.9,0-5.9c0-0.8,0.1-1.2,1.1-1.4c3.2-0.7,5.4-3.3,5.5-6.5
	c0.1-3.3-1.9-6-5.2-6.9c-1.3-0.4-1.3-0.4-1.4-1.8c0-1.8,0-3.6,0-5.4c0-1.3,0-1.3,1.3-1.6c4.9-1.3,6.8-7,3.7-11c-1-1.2-2.3-2-3.8-2.4
	c-1.2-0.3-1.2-0.3-1.2-1.5c0-1.8,0-3.7,0-5.5c0-1.4-0.1-1.3,1.3-1.7c3.2-0.8,5.3-3.5,5.3-6.7c0-3.2-2.2-5.9-5.3-6.7
	c-1.3-0.3-1.3-0.3-1.3-1.5c0-2,0-3.9,0-5.9c0-0.8,0.2-1.1,1.1-1.4c3.2-0.8,5.2-3.1,5.5-6c0.3-3.4-1.9-6.6-5.3-7.4
	c-0.9-0.2-1.2-0.5-1.2-1.4c0.1-2,0.1-3.9,0-5.9c0-0.9,0.3-1.2,1.2-1.4c2.8-0.7,4.6-2.5,5.2-5.3c0.5-2.6-0.3-4.8-2.2-6.6
	c-0.9-0.8-2-1.4-3.2-1.5c-0.8-0.1-1-0.5-0.9-1.2c0-1.4,0.1-2.9,0-4.3c-0.1-0.9,0.2-1.4,1.1-1.5c1.1-0.2,2.1-0.7,3-1.4
	c2-1.8,2.9-4,2.3-6.7c-0.6-2.7-2.3-4.5-4.9-5.2c-1.4-0.4-1.4-0.4-1.4-1.9c0-1.7,0-3.4,0-5.1c0-1.5,0-1.5,1.4-1.9
	c3-0.9,5-3.3,5.1-6.3c0.2-3.4-2-6.3-5.4-7c-0.9-0.2-1.2-0.5-1.2-1.4c0.1-2,0.1-3.9,0-5.9c0-0.9,0.3-1.2,1.2-1.4
	C22.8,92.5,24.8,87,22,83c-1-1.4-2.4-2.4-4.2-2.7c-0.9-0.2-1.1-0.6-1.1-1.4c0-2,0-4,0-6c0-0.9,0.3-1.1,1.1-1.3
	c4.9-1.2,7-6.6,4.1-10.7c-1-1.5-2.4-2.4-4.1-2.7c-1-0.2-1.2-0.6-1.1-1.5c0.1-1.9,0-3.8,0-5.7c0-1.2,0-1.2,1.2-1.5c4-1,6.2-5,5-8.8
	c-0.8-2.4-2.4-3.9-4.9-4.5c-1.3-0.4-1.3-0.4-1.3-1.8c0-1.9,0-3.8,0-5.7c0-0.8,0.3-1.1,1-1.3c4.6-0.8,7.4-6.5,4.1-10.9
	c-0.5-0.6-0.4-1,0.1-1.4c0.3-0.2,0.5-0.5,0.8-0.8c0.5-0.5,0.9-1.3,1.6-1.4c0.7-0.1,1.1,0.7,1.7,1c3.9,2,8.7,0,9.8-4.3
	c0.5-1.7,0.4-1.4,1.9-1.4c1.3,0,2.5,0,3.8,0c0.8,0,1.1,0.2,1.3,1.1c0.6,2.8,2.3,4.6,5.1,5.2c3.6,0.9,7.1-1.2,8.2-4.7
	c0.5-1.6,0.5-1.6,2.1-1.6c1.3,0,2.5,0,3.8,0c0.7,0,1,0.2,1.1,0.9c0.6,2.8,2.3,4.6,5,5.3c3.8,1,7.4-1.2,8.4-5
	c0.3-1.3,0.3-1.3,1.6-1.3c1.3,0,2.6,0.1,4,0c0.9,0,1.2,0.3,1.4,1.1c0.1,0.4,0.2,0.7,0.3,1.1c1.1,2.7,3.9,4.6,6.7,4.4
	c3-0.2,5.6-2.3,6.3-5.1c0.4-1.4,0.4-1.4,1.9-1.4c1.2,0,2.3,0,3.5,0c1.3,0,1.3,0,1.7,1.3c0.8,2.7,2.5,4.5,5.3,5.1
	c3.4,0.7,6.9-1.3,8-4.7c0.1-0.4,0.2-0.7,0.3-1.1c0.1-0.4,0.3-0.6,0.8-0.6c1.7,0,3.4,0,5.1,0c0.6,0,0.8,0.2,0.9,0.8
	c0.2,1.1,0.6,2.1,1.3,3c1.6,2,3.7,2.9,6.3,2.6c2.7-0.4,4.6-1.9,5.6-4.5c0.1-0.3,0.3-0.7,0.3-1.1c0-0.8,0.5-0.9,1.1-0.9
	c1.4,0,2.9,0.1,4.3,0c0.9,0,1.3,0.3,1.5,1.2c0.6,2.6,2.2,4.4,4.9,5.1c3.8,1,7.5-1.2,8.5-5c0.3-1.2,0.3-1.2,1.5-1.2
	c1.3,0,2.6,0.1,4,0c0.9-0.1,1.3,0.3,1.5,1.2c0.6,2.8,2.4,4.5,5.2,5.2c3.6,0.8,7.2-1.4,8.2-5c0.3-1.3,0.3-1.3,1.6-1.3
	c1.3,0,2.5,0,3.8,0c1.3,0,1.3,0,1.6,1.2c0.8,2.8,2.5,4.6,5.4,5.2c3.4,0.7,6.8-1.3,7.9-4.6c0.1-0.3,0.2-0.6,0.2-0.9
	c0.1-0.6,0.4-0.9,1.1-0.8c1.5,0,3.1,0,4.6,0c0.8,0,1,0.3,1.2,1.1c0.6,2.7,2.3,4.6,5.1,5.2c3.6,0.9,7.1-1.1,8.2-4.7
	c0.5-1.6,0.5-1.6,2.2-1.6c1.2,0,2.3,0,3.5,0c0.8,0,1.2,0.2,1.4,1.1c0.3,1.7,1.2,3.1,2.7,4.1c4,2.8,9.5,0.8,10.7-3.9
	c0.3-1.3,0.3-1.3,1.6-1.3c1.4,0,2.7,0,4.1,0c0.7,0,1.1,0.2,1.2,0.9c0.2,1.3,0.8,2.5,1.8,3.5c1.9,1.9,4.2,2.6,6.8,1.9
	c2.5-0.7,4.1-2.4,4.8-5c0.3-1.2,0.3-1.3,1.5-1.3c1.5,0,3,0,4.4,0c0.6,0,0.9,0.2,1,0.8c0.1,0.6,0.3,1.2,0.6,1.8
	c1.2,2.5,4,4.2,6.7,3.9c3-0.3,5.3-2.2,6.1-5c0.1-0.3,0.2-0.6,0.2-0.9c0.1-0.4,0.3-0.6,0.7-0.6c1.7,0,3.5,0,5.2,0
	c0.7,0,0.7,0.5,0.8,0.9c0.4,1.8,1.3,3.2,2.8,4.3c4,2.8,9.2,0.9,10.7-3.8c0.4-1.4,0.4-1.4,1.9-1.4c1.2,0,2.3,0,3.5,0
	c1.3,0,1.3,0,1.7,1.3c0.7,2.6,2.3,4.3,5,5c3.8,1,7.4-1.3,8.4-5c0.3-1.2,0.3-1.2,1.5-1.2c1.3,0,2.6,0.1,4,0c0.9-0.1,1.4,0.2,1.5,1.2
	c0.2,1.5,1,2.6,2.1,3.6c3.8,3.4,10,1.6,11.2-3.4c0.3-1.3,0.3-1.3,1.7-1.4c1.3,0,2.5,0,3.8,0c0.9,0,1.2,0.2,1.5,1.2
	c0.7,2.8,2.5,4.6,5.3,5.2c3.4,0.7,6.8-1.3,7.9-4.6c0.1-0.3,0.2-0.6,0.2-0.9c0.1-0.8,0.5-0.9,1.2-0.9c1.5,0,3,0,4.4,0
	c0.8,0,1.1,0.2,1.2,1c0.6,2.7,2.2,4.5,4.9,5.2c3.8,1,7.4-1.1,8.5-4.9c0.4-1.3,0.4-1.3,1.7-1.3c1.1,0,2.2,0,3.3,0c1.5,0,1.5,0,2,1.5
	c0.8,2.6,2.5,4.2,5.1,4.8c3.6,0.8,7.2-1.4,8.2-5c0.3-1.3,0.3-1.3,1.6-1.3c1.3,0,2.5,0,3.8,0c1.3,0,1.3,0,1.6,1.2
	c0.7,2.8,2.5,4.6,5.4,5.2c3.5,0.7,7-1.4,7.9-4.9c0.4-1.4,0.4-1.4,1.8-1.5c1.3,0,2.5,0,3.8,0c0.8,0,1.2,0.2,1.4,1.1
	c0.7,2.9,2.5,4.7,5.4,5.3c2,0.4,3.8-0.1,5.4-1.2c0.7-0.5,1.1-0.5,1.6,0.1c0.4,0.5,0.9,0.9,1.3,1.4c1,1,1,1,0.2,2.1
	c-2.3,3.6-1,8.3,2.8,10.1c0.5,0.2,1.1,0.4,1.7,0.5c0.6,0.1,0.9,0.4,0.9,1c0,2.2,0,4.4,0,6.6c0,0.5-0.1,0.8-0.7,0.9
	c-0.3,0-0.5,0.1-0.8,0.2c-3.1,0.9-5.1,3.5-5.1,6.7c0,3.2,2.2,5.9,5.3,6.7c1.2,0.3,1.2,0.3,1.2,1.5c0,1.9,0,3.8,0,5.7
	c0,0.9-0.2,1.2-1.1,1.5c-2.7,0.6-4.5,2.3-5.2,5c-1,3.8,1.3,7.4,5.1,8.4c1.2,0.3,1.2,0.3,1.2,1.5c0,2,0,3.9,0,5.9
	c0,0.8-0.2,1.1-1.1,1.3c-2.8,0.6-4.7,2.4-5.3,5.3c-0.6,2.8,0.3,5.2,2.6,7c0.8,0.7,1.8,1.1,2.9,1.2c0.6,0.1,0.8,0.3,0.8,0.9
	c0,2.2,0,4.4,0,6.6c0,0.7-0.2,0.9-0.9,1c-2.2,0.4-3.8,1.6-4.8,3.5c-2,3.9-0.1,8.5,4.1,9.8c0.4,0.1,0.7,0.2,1.1,0.3
	c0.4,0.1,0.5,0.3,0.5,0.7c0,2.3,0,4.6,0,7c0,0.8-0.5,0.8-1,0.9c-2.2,0.5-3.8,1.7-4.8,3.8c-1.8,3.8,0.2,8.3,4.2,9.5
	c0.3,0.1,0.6,0.2,0.9,0.2c0.5,0.1,0.7,0.4,0.7,0.9c0,1.6,0,3.3,0,4.9c0,0.7-0.2,0.9-0.9,1c-1.8,0.3-3.3,1.3-4.4,2.8
	c-2.6,3.8-0.9,9,3.5,10.5c0.3,0.1,0.6,0.2,0.9,0.2c0.7,0,0.9,0.4,0.9,1c0,2.1,0,4.2,0,6.3c0,0.8-0.2,1.1-1,1.3
	c-3,0.7-4.8,2.5-5.4,5.5c-0.6,3.3,1.3,6.6,4.4,7.7c0.3,0.1,0.6,0.2,0.9,0.2c0.9,0,1.1,0.6,1,1.4c-0.1,1.9,0,3.8,0,5.7
	c0,1.3,0,1.3-1.3,1.6c-3,0.7-5.1,3.3-5.2,6.4c-0.1,2.9,1.7,5.6,4.4,6.7c0.1,0.1,0.3,0.1,0.4,0.2c1.7,0.5,1.7,0.5,1.7,2.1
	c0,1.7-0.1,3.5,0,5.2c0,0.9-0.3,1.3-1.2,1.5c-2.2,0.4-3.7,1.7-4.7,3.7c-1.9,3.9,0.2,8.6,4.4,9.7c1.6,0.4,1.3,0.4,1.3,1.8
	c0,1.9,0,3.8,0,5.7c0,0.8-0.2,1.1-1,1.2c-2.7,0.6-4.6,2.3-5.3,5.1c-1,3.8,1.3,7.4,5.1,8.3c0.9,0.2,1.2,0.5,1.2,1.4c-0.1,2,0,4,0,6
	c0,0.7-0.1,1.1-1,1.3c-5.2,1.1-7.1,7-4.2,10.9c0.4,0.6,0.5,0.9-0.1,1.5C442.8,268.5,442.1,269.3,441.2,270.2z"/>
<path class="st2" d="M232.8,258.8c-66,0-131.9,0-197.9,0c-2.4,0-2.2,0.4-2.2-2.2c0-76.8,0-153.6,0-230.3c0-2.6-0.3-2.2,2.3-2.2
	c131.9,0,263.7,0,395.6,0c2.7,0,2.3-0.2,2.3,2.4c0,76.7,0,153.3,0,230c0,2.6,0.2,2.3-2.3,2.3C364.7,258.8,298.8,258.8,232.8,258.8z"
	/>
<path class="st3" d="M232.7,257.9c-65.6,0-131.3,0-196.9,0c-2.7,0-2.3,0.3-2.3-2.4c0-76.1,0-152.3,0-228.4c0-2.6-0.3-2.3,2.2-2.3
	c131.3,0,262.7,0,394,0c2.7,0,2.3-0.4,2.3,2.4c0,76.1,0,152.3,0,228.4c0,2.6,0.3,2.3-2.2,2.3C364.1,257.9,298.4,257.9,232.7,257.9z"
	/>
<path class="st0" d="M232.9,27.4c0.4,0,0.7,0,1.1,0c64.4,0,128.9,0,193.3,0c2.5,0,2.2-0.3,2.2,2.2c0,74.6,0,149.1,0,223.7
	c0,2.3,0.4,2.3-2.3,2.3c-64.4,0-128.9,0-193.3,0c-65.2,0-130.3,0-195.5,0c-2.9,0-2.5,0-2.5-2.5c0-74.5,0-148.9,0-223.4
	c0-2.6-0.2-2.3,2.4-2.3c63.2,0,126.4,0,189.6,0C229.7,27.4,231.3,27.4,232.9,27.4C232.9,27.4,232.9,27.4,232.9,27.4z"/>
<path class="st4" d="M36.9,141.3c0-37,0-74,0-111c0-2.4-0.3-2.1,2.1-2.1c63.8,0,127.6,0,191.4,0c2.3,0,2-0.3,2,2
	c0,74.1,0,148.3,0,222.4c0,2.2,0.2,2-1.9,2c-63.8,0-127.7,0-191.5,0c-2.2,0-2,0.3-2-2.1C36.9,215.5,36.9,178.4,36.9,141.3z"/>
<path class="st4" d="M327.8,158.7c-0.1,7-0.4,13.9-1.8,20.8c-0.8,3.8-1.9,7.5-3.9,10.8c-0.7,1.2-1.6,2.4-2.7,3.3
	c-3.4,3-8.2,3.1-11.8,0.3c-1.7-1.4-2.9-3.1-3.8-5c-1.8-3.7-2.8-7.6-3.5-11.6c-0.8-4.7-1.1-9.4-1.3-14.2c-0.2-4.3-0.1-8.7,0.1-13
	c0.3-6,1.1-12,3.1-17.7c0.9-2.5,2-4.9,3.6-7c4-5,10.5-5.1,14.7-0.3c2.2,2.5,3.5,5.5,4.4,8.7c1.2,3.8,1.8,7.7,2.3,11.6
	c0.2,1.4,0.3,2.8,0.4,4.3C327.7,152.7,327.9,155.7,327.8,158.7z"/>
<path class="st4" d="M276.9,143.9c-0.4-0.5-0.4-1.1-0.6-1.6c-0.4-1.1-0.8-2.2-1.4-3.2c-1.2-2-3.4-2.1-4.8-0.2
	c-0.7,1-1.1,2.2-1.4,3.3c-0.5,2.2-0.8,4.5-0.9,6.7c-0.5,7.3-0.5,14.5,0.3,21.8c0.2,1.6,0.5,3.1,0.9,4.6c0.2,0.6,0.4,1.2,0.7,1.8
	c0.7,1.3,1.5,2.5,3.2,2.5c1.8,0,2.6-1.2,3.2-2.6c1.1-2.6,1.2-5.3,1.3-8.1c0-0.5-0.3-0.7-0.8-0.7c-0.8,0-1.6,0-2.4,0
	c-0.6,0-1-0.2-1-0.9c0-4,0-8,0-12c0-0.6,0.3-0.8,0.9-0.8c3.9,0,7.8,0,11.7,0c0.7,0,1,0.2,0.9,0.9c-0.1,7.7,0.4,15.5-0.9,23.2
	c-0.6,3.5-1.5,7-3.2,10.2c-0.7,1.3-1.4,2.4-2.4,3.5c-4,4.7-10.8,4.5-14.7,0c-2.1-2.4-3.4-5.2-4.4-8.2c-1.4-4.1-2.1-8.3-2.6-12.5
	c-0.6-6-0.8-12-0.6-18c0.2-6.3,0.7-12.6,2.5-18.8c0.9-3.1,2-6,3.9-8.6c1.4-1.9,3-3.3,5.3-4.1c4-1.4,7.7-0.4,10.4,2.8
	c2.2,2.7,3.4,5.9,4.4,9.2c0.3,1.1,1,2.3,0.7,3.3c-0.3,1.1-1.7,1.5-2.6,2.2c-1.5,1.2-3.1,2.3-4.7,3.5
	C277.6,143.5,277.3,143.8,276.9,143.9z"/>
<path class="st4" d="M354.1,167.6c0.2-4,0.9-8,1.5-11.9c1-7,2-14,3-21c0.5-3.3,1-6.7,1.4-10c0.1-0.9,0.5-1.1,1.3-1.1
	c2.4,0,4.7,0,7.1,0c1.3,0,1.3,0,1.1,1.2c-0.7,4-1.4,8-2,12c-1.1,6.6-2.2,13.2-3.3,19.8c-1.3,7.8-2.6,15.6-3.9,23.4
	c-0.7,4.2-1.4,8.4-2.1,12.6c-0.3,1.5-0.2,1.5-1.7,1.5c-1.8,0-3.6,0-5.4,0c-1.4,0-1.4,0-1.7-1.5c-0.4-2.5-0.8-5-1.3-7.5
	c-1.1-6.5-2.2-13.1-3.3-19.6c-1.3-7.8-2.7-15.7-4-23.5c-1-5.9-2-11.8-3-17.8c0-0.2,0-0.3,0-0.5c0.3-0.4,0.7-0.3,1-0.3
	c2.3,0,4.6,0,7,0c1.2,0,1.2,0,1.4,1.3c1.3,8.2,2.5,16.4,3.8,24.5c0.9,5.7,1.7,11.4,2.4,17.1c0.1,0.6,0.1,1.2,0.1,1.7
	c0.4,0.6,0.4,1.1,0.1,1.7C353.9,169.2,353.8,168.3,354.1,167.6z"/>
<path class="st5" d="M428.1,254.6c-64.9,0-129.7,0-194.6,0c0-0.1,0-0.1,0-0.2c64.9,0,129.7,0,194.6,0
	C428.2,254.5,428.2,254.6,428.1,254.6z"/>
<path class="st6" d="M428.2,28.2c-64.9,0-129.7,0-194.6,0c0-0.1,0-0.1,0-0.2c64.9,0,129.7,0,194.6,0
	C428.2,28.1,428.2,28.2,428.2,28.2z"/>
<path class="st7" d="M354.1,167.6c0.1,0.9,0.2,1.8-0.4,2.8c-0.2-0.9-0.2-1.5-0.1-2.2C353.7,168,353.9,167.8,354.1,167.6z"/>
<path class="st8" d="M153.4,194.2c-2.9,0-5.6,0-8.4,0c-0.8,0-0.9-0.5-1-1.1c-0.3-2.7-0.7-5.4-1-8.2c-0.3-2.5-0.3-2.5-2.7-2.5
	c-2,0-3.9,0-5.9,0c-0.8,0-1.2,0.2-1.3,1.1c-0.4,3.2-0.8,6.4-1.2,9.6c-0.1,1.1-0.1,1.1-1.3,1.1c-2.3,0-4.5,0-6.8,0
	c-1.2,0-1.2,0-1-1.1c0.7-4.6,1.4-9.2,2.1-13.8c0.9-6,1.7-12,2.6-18c1.3-9,2.7-17.9,4-26.9c0.5-3.2,0.9-6.4,1.4-9.5
	c0.2-1.2,0.2-1.2,1.3-1.2c2.6,0,5.2,0,7.8,0c0.9,0,1.2,0.2,1.3,1.1c0.5,3.7,1.1,7.4,1.6,11.1c0.9,6,1.8,12.1,2.6,18.1
	c1.1,7.6,2.2,15.2,3.4,22.8c0.8,5.5,1.6,10.9,2.4,16.4C153.3,193.5,153.3,193.7,153.4,194.2z"/>
<path class="st8" d="M93.4,158.7c0-11.1,0-22.3,0-33.4c0-2.1-0.1-1.7,1.8-1.8c5,0,9.9,0,14.9,0c1.3,0,1.3,0,1.3,1.3
	c0,4.2,0,8.3,0,12.5c0,1.3,0,1.3-1.3,1.3c-2.2,0-4.4,0-6.6,0c-0.8,0-1.1,0.3-1.1,1.1c0,3.6,0,7.2,0,10.8c0,0.8,0.2,1.1,1.1,1.1
	c1.9-0.1,3.8,0,5.7,0c1.1,0,1.1,0,1.1,1.2c0,4.2,0,8.3,0,12.5c0,0.8-0.3,1.1-1.1,1.1c-1.9-0.1-3.8,0-5.7,0c-0.8,0-1.1,0.1-1.1,1
	c0.1,3.6,0,7.2,0,10.8c0,0.8,0.3,1,1,1c2.3,0,4.6,0,7,0c1.2,0,1.2,0,1.2,1.2c0,4.2,0,8.4,0,12.7c0,1.2,0,1.2-1.2,1.2
	c-5.1,0-10.2,0-15.4,0c-1.4,0-1.5,0.3-1.5-1.5C93.4,181.3,93.4,170,93.4,158.7z"/>
<path class="st8" d="M182.9,140.3c-0.9-0.8-1.6-1.4-2.3-1.9c-0.7-0.6-1.5-1.1-2.4-1.5c-2.2-1-4-0.2-4.8,2c-0.7,1.8-0.6,3.7-0.1,5.6
	c0.7,2.7,2.3,5,3.9,7.2c3.5,4.6,6.2,9.6,7.4,15.2c1.4,6.9,1.2,13.7-1.4,20.4c-0.8,2.1-2,4-3.5,5.6c-4,4.2-9.4,3.9-13.8,0.3
	c-0.4-0.3-0.5-0.6-0.5-1.1c0-5.1,0-10.1,0-15.2c0-0.1,0.1-0.2,0.2-0.3c0.8,0.7,1.5,1.4,2.3,2.1c0.9,0.7,1.8,1.3,2.8,1.7
	c2.2,0.9,3.9,0.2,4.7-2c0.6-1.4,0.7-3,0.6-4.5c-0.2-1.8-0.7-3.4-1.7-4.9c-0.7-1.2-1.5-2.3-2.3-3.4c-3-4.3-5.8-8.8-7.1-14
	c-1.8-7.4-1.7-14.7,1-21.9c0.6-1.7,1.5-3.2,2.7-4.6c2.5-3.1,6-4.1,9.8-2.8c0.4,0.1,0.9,0.3,1.3,0.5c3,1.4,3,1.5,3,4.7
	c0,3.7,0,7.4,0,11.1C182.9,139,182.9,139.5,182.9,140.3z"/>
<path class="st8" d="M210.2,146.2c0.7-1.2,0.8-2.6,1.1-3.9c1.1-5.9,2.4-11.7,3.6-17.5c0.3-1.2,0.3-1.2,1.5-1.2c2.6,0,5.2,0,7.8,0
	c0.4,0,0.7-0.1,1.2,0.2c-0.4,1.7-0.9,3.4-1.4,5.1c-2.9,10.7-5.8,21.3-8.7,32c-0.3,0.9-0.4,1.8-0.4,2.8c0,9.5,0,19,0,28.5
	c0,0.4,0,0.7,0,1.1c0,0.6-0.2,0.8-0.8,0.8c-2.4,0-4.9,0-7.3,0c-0.7,0-0.9-0.3-0.9-0.9c0-0.4,0-0.7,0-1.1c0-9.4,0-18.8,0-28.2
	c0-1.2-0.2-2.3-0.5-3.4c-3.2-11.8-6.4-23.7-9.5-35.6c-0.1-0.4-0.3-0.8-0.2-1.2c0.6-0.3,1.2-0.1,1.8-0.1c2.1,0,4.2,0,6.3,0
	c1.7,0,1.7,0,2,1.6c0.9,4.2,1.8,8.4,2.6,12.5C209.1,140.5,209.6,143.4,210.2,146.2z"/>
<path class="st0" d="M308.3,159.5c0.1-5.2,0.1-10,0.9-14.8c0.2-1.5,0.6-3,1.2-4.4c0.3-0.6,0.5-1.1,1-1.6c1.1-1.2,2.6-1.3,3.7-0.1
	c0.9,1,1.3,2.1,1.7,3.4c0.8,2.8,1.1,5.7,1.3,8.6c0.3,5.7,0.3,11.4,0,17.1c-0.1,2.8-0.4,5.6-1.2,8.3c-0.3,1-0.7,1.9-1.3,2.7
	c-1.4,1.8-3.4,1.7-4.7-0.2c-0.9-1.4-1.3-2.9-1.5-4.4c-0.4-2.2-0.6-4.5-0.7-6.8C308.5,164.4,308.4,161.7,308.3,159.5z"/>
<path class="st9" d="M138.2,144.2c0.4,4.2,0.8,8.4,1.3,12.6c0.4,3.5,0.8,7,1.2,10.5c0.1,0.5,0.1,1.1,0.2,1.6
	c0.1,0.6-0.2,0.7-0.7,0.7c-1.5,0-3,0-4.4,0c-0.7,0-0.7-0.4-0.7-0.9c0.3-2.2,0.5-4.4,0.8-6.6c0.6-4.9,1-9.7,1.5-14.6
	c0.1-1,0.2-2,0.3-3C137.8,144.3,137.8,144,138.2,144.2z"/>
<path class="st10" d="M138.2,144.2c-0.2,0.1-0.4,0.2-0.6,0.3c0-0.5,0-1,0-1.6c0.2-0.2,0.4-0.2,0.5,0
	C138.2,143.3,138.2,143.8,138.2,144.2z"/>
<path class="st11" d="M137.6,142.3c0-0.3,0-0.6,0-1c0.1-0.2,0.2-0.4,0.5-0.3c0,0.3,0,0.6,0,1C138,142.2,137.9,142.4,137.6,142.3z"/>
<path class="st12" d="M137.6,142.3c0.2-0.1,0.3-0.2,0.5-0.3c0,0.3,0,0.6,0,0.9c-0.2,0-0.4,0-0.5,0
	C137.6,142.7,137.6,142.5,137.6,142.3z"/>
<path class="st13" d="M137.6,140.7c0-0.1,0-0.2,0-0.3c0-0.2,0-0.5,0.2-0.5c0.4-0.1,0.3,0.3,0.4,0.5
	C138,140.6,137.9,140.9,137.6,140.7z"/>
<path class="st14" d="M137.6,140.7c0.2-0.1,0.4-0.2,0.6-0.3c0,0.2,0,0.4,0,0.6c-0.2,0.1-0.4,0.2-0.5,0.3
	C137.6,141.1,137.6,140.9,137.6,140.7z"/>
<g>
	<path class="st8" d="M496,22.9c0,8.2-6.6,15.1-15.1,15.1c-8.4,0-14.9-6.8-14.9-15s6.6-15.1,15-15.1C489.4,7.9,496,14.6,496,22.9z
		 M492.8,22.9c0-6.4-5.1-11.7-11.8-11.7c-6.7,0-11.8,5.4-11.8,11.8c0,6.4,5.1,11.7,11.7,11.7C487.7,34.7,492.8,29.3,492.8,22.9z
		 M484.6,24.9l3.1,4.8h-3.7l-2.3-4.2h-0.4h-2.9v4.2h-3.2V15.3h6.1c3.8,0,5.9,1.8,5.9,5C487.4,22.5,486.4,24.1,484.6,24.9z
		 M478.5,22.9h2.9c1.8,0,2.9-0.9,2.9-2.6c0-1.6-1.1-2.5-2.9-2.5h-2.9V22.9z"/>
</g>
</svg>
