<?xml version="1.0" encoding="utf-8"?>
<!-- Generator: Adobe Illustrator 21.1.0, SVG Export Plug-In . SVG Version: 6.00 Build 0)  -->
<svg version="1.1" id="Layer_1" xmlns="http://www.w3.org/2000/svg" xmlns:xlink="http://www.w3.org/1999/xlink" x="0px" y="0px"
	 viewBox="0 0 20 20" style="enable-background:new 0 0 20 20;" xml:space="preserve">
<g>
	<path d="M16.1,8.8h-0.3V6.4c0-3.2-2.6-5.7-5.7-5.7c-3.2,0-5.7,2.6-5.7,5.7c0,0.3,0.2,0.5,0.5,0.5s0.5-0.2,0.5-0.5
		c0-2.6,2.1-4.7,4.7-4.7c2.6,0,4.7,2.1,4.7,4.7v2.5H4c-0.6,0-1,0.5-1,1v6.5c0,1.7,1.4,3,3,3h8c1.7,0,3-1.4,3-3V9.9
		C17.1,9.3,16.7,8.8,16.1,8.8L16.1,8.8z M16.1,16.4c0,1.1-0.9,2-2,2h-8c-1.1,0-2-0.9-2-2V9.9h12V16.4z M16.1,16.4"/>
	<path d="M10.1,16.2c1.1,0,2-0.9,2-2c0-1.1-0.9-2-2-2c-1.1,0-2,0.9-2,2C8.1,15.3,9,16.2,10.1,16.2L10.1,16.2z M10.1,13.3
		c0.5,0,0.9,0.4,0.9,0.9c0,0.5-0.4,0.9-0.9,0.9c-0.5,0-0.9-0.4-0.9-0.9S9.6,13.3,10.1,13.3L10.1,13.3z M10.1,13.3"/>
</g>
</svg>
