<?xml version="1.0" encoding="utf-8"?>
<!-- Generator: Adobe Illustrator 21.1.0, SVG Export Plug-In . SVG Version: 6.00 Build 0)  -->
<svg version="1.1" id="Layer_1" xmlns="http://www.w3.org/2000/svg" xmlns:xlink="http://www.w3.org/1999/xlink" x="0px" y="0px"
	 viewBox="0 0 20 20" style="enable-background:new 0 0 20 20;" xml:space="preserve">
<path d="M10.4,10.7h0.1c1.1,0,1.9-0.4,2.6-1.1C14.5,8,14.3,5.2,14.3,5c-0.1-2-1-2.9-1.8-3.3c-0.6-0.3-1.2-0.5-2-0.5h-0.1
	c-0.4,0-1.2,0.1-2,0.5C7.7,2.1,6.8,3,6.7,5c0,0.3-0.3,3,1.1,4.6C8.5,10.3,9.3,10.7,10.4,10.7L10.4,10.7z M7.7,5.1
	C7.7,5.1,7.7,5.1,7.7,5.1c0.1-2.7,2-2.9,2.8-2.9h0c1,0,2.7,0.4,2.8,2.9c0,0,0,0,0,0c0,0,0.3,2.5-0.9,3.8c-0.5,0.5-1.1,0.8-1.9,0.8h0
	C9.6,9.7,9,9.4,8.6,8.9C7.4,7.6,7.7,5.1,7.7,5.1L7.7,5.1z M7.7,5.1"/>
<path d="M18,15.2L18,15.2c0,0,0-0.1,0-0.1c0-0.7-0.1-2.4-1.7-3c0,0,0,0,0,0c-1.7-0.4-3-1.4-3-1.4c-0.2-0.2-0.5-0.1-0.7,0.1
	c-0.2,0.2-0.1,0.5,0.1,0.7c0.1,0,1.5,1.1,3.3,1.5c0.9,0.3,0.9,1.2,1,2.1c0,0,0,0.1,0,0.1c0,0.3,0,0.8-0.1,1.1
	c-0.6,0.3-2.9,1.5-6.5,1.5c-3.5,0-5.9-1.2-6.5-1.5c-0.1-0.3-0.1-0.8-0.1-1.1c0,0,0-0.1,0-0.1c0-0.8,0.1-1.7,1-2.1
	c1.8-0.5,3.3-1.5,3.3-1.5c0.2-0.2,0.3-0.5,0.1-0.7c-0.2-0.2-0.5-0.3-0.7-0.1c0,0-1.4,1-3,1.4c0,0,0,0,0,0C3,12.7,3,14.4,3,15.1
	c0,0,0,0.1,0,0.1v0c0,0.2,0,1.2,0.2,1.7c0,0.1,0.1,0.2,0.2,0.2c0.1,0.1,2.7,1.8,7.1,1.8s7-1.7,7.1-1.8c0.1-0.1,0.2-0.1,0.2-0.2
	C18,16.4,18,15.4,18,15.2L18,15.2z M18,15.2"/>
</svg>
